<?xml version="1.0" encoding="utf-8"?>
<!-- Generator: Adobe Illustrator 27.5.0, SVG Export Plug-In . SVG Version: 6.00 Build 0)  -->
<svg version="1.1" xmlns="http://www.w3.org/2000/svg" xmlns:xlink="http://www.w3.org/1999/xlink" x="0px" y="0px"
	 viewBox="0 0 500 500" style="enable-background:new 0 0 500 500;" xml:space="preserve">
<g id="BACKGROUND">
	<rect style="fill:#FFFFFF;" width="500" height="500"/>
</g>
<g id="OBJECTS">
	<g>
		<g>
			<g>
				<g>
					<g>
						<path style="fill:#333232;" d="M343.427,115.229l0.818-4.25l0.294,0.291c-1.285,0.299-2.508,0.848-3.58,1.605l-0.471,0.333
							l0-0.586c-0.007-11.43-1.992-22.891-6.367-33.409c-1.114-2.617-2.338-5.185-3.729-7.661c-0.704-1.232-1.423-2.457-2.195-3.646
							c-0.787-1.165-1.541-2.425-2.4-3.432c-0.852-1.023-1.87-1.716-3.051-1.863c-1.17-0.165-2.432,0.199-3.587,0.811
							c-1.161,0.616-2.237,1.466-3.209,2.417c-0.957,0.954-1.883,2.063-2.763,3.14c-7.006,8.826-10.522,20.139-10.687,31.351
							c-0.033,2.809,0.124,5.621,0.498,8.403c0.373,2.805,0.965,5.478,1.718,8.282c0.351,1.415,0.69,2.887,0.807,4.452
							c0.098,1.577,0.053,3.176-0.592,4.843c-0.64,1.592-1.708,2.969-3.159,3.959c-0.725,0.492-1.57,0.871-2.499,1.04
							c-0.925,0.173-1.936,0.106-2.844-0.215l1.432-2.381c1.205,1.101,2.679,1.92,4.247,2.363l2.467,0.695l-1.893,1.74
							c-2.266,2.083-4.992,3.648-7.937,4.556l0.724-2.286c1.044,1.338,2.584,2.32,4.234,2.702l2.798,0.647l-2.167,1.893
							c-2.671,2.333-4.492,5.531-5.746,8.988c-1.266,3.467-2.041,7.179-2.835,10.932c-0.798,3.754-1.591,7.593-2.977,11.354
							c-1.367,3.736-3.477,7.456-6.675,10.191l-0.855-2.794l5.651,0.641l7.173,0.814l-6.848,2.313l-6.098,2.059l0.549-2.773
							l3.342,2.881l1.756,1.514l-2.023,1.152c-6.529,3.717-12.429,8.522-17.441,14.11c-2.525,2.785-4.786,5.778-6.839,8.944
							c-2.061,3.172-3.977,6.524-6.166,9.782c-2.154,3.264-4.747,6.413-7.679,9.076c-2.918,2.68-6.056,5.015-9.158,7.295
							c-6.191,4.53-12.207,9.235-18.008,14.219c-11.584,9.958-22.312,20.981-31.296,33.342
							c-9.016,12.314-16.305,25.947-20.964,40.513c-2.34,7.272-4.036,14.75-4.836,22.355c-0.417,3.799-0.63,7.621-0.713,11.449
							c-0.046,1.914-0.046,3.83-0.034,5.746c0.005,1.914,0.122,3.826-0.005,5.822c-0.116,1.981-0.673,4.044-1.745,5.764
							c-1.049,1.737-2.46,3.193-3.998,4.432c-3.11,2.459-6.657,4.172-10.326,5.503c-7.375,2.58-15.49,2.973-23.066,1.053
							c-7.573-1.936-14.5-6.245-19.628-12.148c-2.569-2.945-4.664-6.316-6.187-9.911c-1.555-3.587-2.559-7.386-3.196-11.22
							c-0.637-3.839-0.882-7.726-0.891-11.601c0.014-3.872,0.212-7.757,0.789-11.608c0.558-3.848,1.502-7.668,2.962-11.311
							c0.708-1.831,1.621-3.582,2.613-5.283c1.013-1.693,2.207-3.276,3.498-4.776l0.391,1.423c-3.892-1.191-8.246-0.491-11.813,1.49
							c-3.576,1.966-6.466,5.273-7.514,9.158l-0.67,2.482l-1.219-2.279c-0.946-1.769-1.41-3.782-1.329-5.793l1.806,0.793
							c-4.23,4.323-6.582,10.447-6.344,16.455l0.174,4.397l-2.356-3.736l-4.089-6.484l2.147-0.104
							c-4.358,8.947-5.454,19.432-3.102,29.05l1.42,5.807l-3.889-4.558l-2.988-3.502l2.532-0.753
							c-0.854,7.08,1.395,14.516,6.005,19.92l1.9,2.227l-2.913,0.296c-1.837,0.186-3.634-0.569-4.787-2.019l2.737-1.331
							c2.118,8.384,9.259,15.377,17.636,17.327l12.26,2.853l-12.597,0.447l-5.814,0.206l1.372-2.618
							c1.654,2.57,4.227,4.473,7.153,5.697c2.932,1.234,6.179,1.854,9.456,2.089l11.348,0.811l-11.077,2.635
							c-0.967,0.23-1.971,0.367-2.916,0.437c-0.948,0.073-1.814,0.102-2.616,0.194l1.385-2.537c0.781,1.649,3.213,2.531,5.781,2.867
							c2.65,0.344,5.442,0.542,8.169,0.63c5.486,0.159,10.985-0.186,16.404-1.033l6.486-1.014l-5.016,4.246l-4.027,3.409
							l-0.919-3.256c8.429,1.252,17.271-0.258,24.796-4.227l4.037-2.129l-1.304,4.385l-0.801,2.692l-3.087-2.033l7.705-6.49
							l4.294-3.617l-1.126,5.511l-1.23,6.019l-2.66-2.226c4.32-1.741,8.103-4.849,10.661-8.731l6.545-9.933l-2.934,11.531
							c-0.227,0.891-0.382,1.749-0.393,2.513c-0.013,0.768,0.122,1.399,0.399,1.872c0.147,0.29,0.61,0.619,1.071,0.706
							c0.223,0.048,0.42,0.032,0.512,0.003c0.097-0.035,0.084-0.03,0.116-0.068l3.352,2.203l-1.663,2.622l-2.12-3.037l5.22-1.135
							l6.963-1.513l-5.395,5.128c-0.056,0.053-0.116,0.101-0.175,0.261c-0.051,0.157-0.09,0.393-0.057,0.646
							c0.07,0.534,0.27,0.898,0.806,1.379c1.018,0.891,3.017,1.533,4.842,1.933c3.751,0.797,7.881,0.626,12.087,0.65l25.096,0.026
							l50.193,0.101l-0.279,0.021c4.212-0.62,8.418-1.076,12.592-1.573c4.181-0.47,8.284-1.087,12.498-1.676
							c2.1-0.286,4.211-0.551,6.334-0.768l1.595-0.152c0.496-0.046,1.174-0.092,1.415-0.136c0.637-0.143,0.953-0.336,1.229-0.866
							c0.281-0.525,0.406-1.367,0.387-2.247c-0.028-0.89-0.165-1.83-0.393-2.764c-0.447-1.848-1.199-3.784-2.158-5.268
							c-1.003-1.428-2.454-2.644-4.143-3.42c-1.679-0.817-3.586-1.248-5.519-1.428c-1.944-0.155-3.92-0.053-5.862,0.317
							c-1.954,0.36-3.904,0.958-5.882,1.616c-1.977,0.655-3.986,1.376-6.086,1.962c-1.046,0.3-2.126,0.546-3.219,0.75l-0.826,0.136
							c-0.325,0.056-0.633,0.072-0.895,0.094l-1.599,0.101c-2.107,0.123-4.199,0.241-6.276,0.408
							c-1.036,0.084-2.071,0.178-3.079,0.304c-0.503,0.063-1.002,0.135-1.465,0.224c-0.229,0.044-0.453,0.095-0.627,0.146
							c-0.083,0.024-0.166,0.056-0.166,0.056s0.018-0.005,0.099-0.068c0.071-0.089,0.334-0.189,0.442-0.866l-2.896-0.234
							l0.155-1.833l2.032,1.433c-4.57,2.035-9.508,3.217-14.495,3.47l-7.032,0.357l6.371-2.949c3.586-1.66,7.26-2.626,10.01-4.777
							l1.794-1.403l0.252,2.156c0.011,0.095,0.102,0.245,0.387,0.377c0.271,0.125,0.649,0.157,0.921,0.081
							c0.726-0.178,1.494-0.875,2.3-1.73l1.286-1.365l0.733,1.721l0.732,1.718l-1.903-0.441l3.423-2.874l1.961-1.647l-0.01,2.544
							l-0.012,3.026l-1.683-1.035c3.848-1.895,7.245-4.735,9.798-8.2l1.436-1.95l0.471,2.36c0.381,1.908,0.276,3.897-0.3,5.749
							l-1.701-1.035c2.407-2.309,4.067-5.423,4.64-8.725l0.737-4.249l1.119,4.151c0.303,1.124,0.349,2.308,0.135,3.449l-1.654-0.73
							c2.396-3.086,3.846-6.917,4.113-10.832l0.201-2.95l1.372,2.601l1.888,3.578l-1.485,0.248c0.853-4.809,1.7-9.604,1.924-14.436
							c0.236-4.817-0.212-9.697-1.834-14.237c-1.597-4.506-4.427-8.704-8.527-11.263c-4.021-2.565-9.203-3.653-13.807-2.052
							l-0.127-0.355c1.169-0.413,2.385-0.684,3.621-0.812c1.238-0.102,2.483-0.056,3.714,0.108c2.459,0.364,4.826,1.251,6.958,2.532
							c4.31,2.567,7.348,6.877,9.092,11.501c1.775,4.656,2.337,9.692,2.198,14.623c-0.128,4.948-0.888,9.825-1.641,14.652
							l-0.356,2.284l-1.129-2.036l-1.961-3.538l1.573-0.35c-0.212,4.261-1.734,8.439-4.308,11.863l-2.313,3.076l0.658-3.807
							c0.15-0.865,0.101-1.769-0.14-2.61l1.857-0.098c-0.594,3.72-2.392,7.226-5.083,9.886l-2.836,2.804l1.135-3.84
							c0.451-1.526,0.512-3.171,0.179-4.72l1.907,0.41c-2.705,3.783-6.326,6.903-10.481,9.025l-1.664,0.85l-0.019-1.885
							l-0.031-3.026l1.951,0.897l-3.381,2.922l-1.235,1.067l-0.668-1.508l-0.757-1.707l2.019,0.355
							c-0.413,0.441-0.859,0.916-1.405,1.364c-0.543,0.444-1.211,0.868-2.007,1.094c-0.883,0.241-1.763,0.173-2.591-0.168
							c-0.808-0.321-1.682-1.098-1.9-2.2l2.046,0.753c-1.621,1.296-3.452,2.215-5.235,2.99c-1.789,0.777-3.548,1.444-5.195,2.238
							l-0.661-2.591c4.648-0.312,9.237-1.466,13.47-3.387l2.217-1.006l-0.185,2.44l-0.139,1.834l-2.896-0.234
							c0.016-0.17,0.06-0.346,0.126-0.504c0.057-0.129,0.116-0.225,0.19-0.329c0.13-0.175,0.245-0.272,0.342-0.35
							c0.186-0.143,0.323-0.212,0.438-0.269c0.235-0.112,0.405-0.166,0.574-0.219c0.331-0.101,0.621-0.165,0.908-0.224
							c0.57-0.114,1.114-0.196,1.656-0.269c1.081-0.145,2.145-0.25,3.208-0.346c2.122-0.189,4.237-0.327,6.336-0.468
							c3.985-0.096,7.786-1.633,11.817-2.997c2.012-0.688,4.096-1.354,6.285-1.779c2.194-0.437,4.461-0.58,6.719-0.418
							c2.255,0.19,4.534,0.671,6.663,1.677c1.066,0.487,2.091,1.109,3.018,1.873c0.953,0.746,1.75,1.63,2.489,2.643
							c1.337,2.054,2.114,4.114,2.695,6.343c0.279,1.11,0.469,2.263,0.517,3.479c0.021,1.214-0.062,2.538-0.734,3.908
							c-0.333,0.673-0.852,1.346-1.528,1.823c-0.67,0.484-1.429,0.761-2.147,0.903c-0.799,0.129-1.175,0.131-1.727,0.194
							l-1.55,0.162c-2.067,0.229-4.136,0.508-6.209,0.808c-4.127,0.614-8.355,1.286-12.546,1.794
							c-4.191,0.531-8.359,1.037-12.484,1.657l-0.136,0.02l-0.143,0l-50.193,0.101l-25.096,0.026
							c-4.139-0.041-8.453,0.185-12.923-0.745c-1.109-0.234-2.216-0.553-3.3-0.954c-1.092-0.416-2.261-0.953-3.339-1.877
							c-0.542-0.478-1.012-0.993-1.437-1.714c-0.403-0.712-0.637-1.471-0.73-2.257c-0.09-0.785-0.021-1.615,0.268-2.447
							c0.286-0.827,0.876-1.658,1.673-2.211l1.568,3.615l-5.22,1.131l-4.696,1.018l2.576-4.055l1.665-2.621l3.352,2.203
							c-0.529,0.802-1.419,1.412-2.286,1.655c-0.874,0.255-1.711,0.235-2.47,0.081c-1.496-0.324-2.874-1.173-3.736-2.637
							c-0.738-1.276-0.954-2.701-0.93-3.934c0.024-1.249,0.252-2.38,0.518-3.435l3.611,1.598
							c-3.031,4.568-7.453,8.148-12.537,10.177l-3.412,1.361l0.752-3.588l1.259-6.013l3.168,1.893l-7.736,6.452l-4.954,4.131
							l1.867-6.165l0.814-2.688l2.733,2.255c-8.288,4.313-17.912,5.904-27.133,4.493l-4.063-0.621l3.143-2.635l4.044-3.389
							l1.469,3.232c-5.65,0.855-11.376,1.186-17.083,0.992c-2.869-0.11-5.668-0.317-8.569-0.707
							c-1.476-0.223-3.001-0.548-4.52-1.242c-1.497-0.669-3.057-1.861-3.898-3.58l-1.111-2.269l2.496-0.268
							c0.976-0.105,1.899-0.129,2.733-0.191c0.838-0.059,1.61-0.164,2.384-0.342l0.271,3.446c-3.559-0.275-7.15-0.958-10.551-2.406
							c-1.695-0.725-3.335-1.653-4.82-2.825c-1.485-1.168-2.802-2.591-3.834-4.199l-1.627-2.536l2.999-0.082l5.816-0.159
							l-0.337,3.301c-9.637-2.373-17.5-10.242-19.875-19.83l-1.883-7.601l4.619,6.27c0.427,0.579,1.286,0.953,2.006,0.868
							l-1.013,2.523c-5.126-6.134-7.525-14.36-6.515-22.261l0.418-3.273l2.113,2.52l2.958,3.527l-2.469,1.249
							c-2.406-10.312-1.065-21.384,3.664-30.802l0.996-1.983l1.151,1.879l4.004,6.537l-2.182,0.661
							c-0.168-6.683,2.495-13.32,7.202-18.018l1.955-1.951l-0.149,2.744c-0.088,1.625,0.269,3.289,1.026,4.738l-1.888,0.203
							c0.634-2.231,1.786-4.287,3.273-6.024c1.488-1.74,3.302-3.175,5.302-4.252c2.001-1.075,4.194-1.797,6.456-2.078
							c2.259-0.283,4.594-0.112,6.783,0.582l1.301,0.412l-0.909,1.011c-2.497,2.777-4.48,6.014-5.912,9.5
							c-1.441,3.481-2.402,7.173-2.99,10.924c-0.606,3.752-0.853,7.567-0.872,11.383c-0.008,3.814,0.219,7.629,0.825,11.383
							c1.175,7.487,4.002,14.812,9.001,20.531c4.934,5.731,11.64,9.944,18.97,11.848c7.336,1.921,15.241,1.424,22.371-1.097
							c3.54-1.303,7.001-3.009,9.921-5.35c1.445-1.178,2.738-2.538,3.672-4.105c0.955-1.565,1.423-3.324,1.529-5.177
							c0.11-1.846-0.013-3.782-0.03-5.712c-0.023-1.929-0.034-3.859,0.002-5.79c0.062-3.861,0.256-7.727,0.656-11.577
							c0.757-7.703,2.333-15.336,4.614-22.733c4.515-14.827,11.716-28.781,20.695-41.396c8.947-12.665,19.673-23.987,31.265-34.229
							c5.8-5.12,11.922-9.885,18.116-14.477c3.084-2.286,6.115-4.569,8.854-7.108c2.752-2.529,5.073-5.368,7.146-8.528
							c2.089-3.136,3.981-6.475,6.094-9.764c2.117-3.297,4.492-6.47,7.122-9.395c5.263-5.857,11.489-10.838,18.346-14.703
							l-0.267,2.665l-3.327-2.898l-2.154-1.876l2.703-0.897l6.109-2.027l0.325,3.126l-5.647-0.671l-3.646-0.433l2.791-2.361
							c2.686-2.272,4.541-5.429,5.823-8.867c1.295-3.447,2.095-7.153,2.909-10.9c0.817-3.749,1.626-7.582,3.015-11.332
							c1.371-3.726,3.463-7.428,6.625-10.16l0.631,2.54c-2.317-0.556-4.397-1.901-5.855-3.781l-1.299-1.675l2.023-0.611
							c2.53-0.764,4.896-2.105,6.853-3.886l0.574,2.435c-2-0.577-3.851-1.62-5.379-3.03l-5.202-4.8l6.634,2.418
							c0.879,0.32,1.906,0.131,2.846-0.49c0.933-0.608,1.724-1.583,2.16-2.648c0.109-0.266,0.198-0.537,0.262-0.81
							c0.062-0.3,0.12-0.602,0.154-0.912c0.071-0.618,0.08-1.256,0.04-1.906c-0.078-1.301-0.359-2.644-0.682-4.015
							c-0.702-2.747-1.319-5.695-1.66-8.587c-0.352-2.911-0.477-5.846-0.405-8.774c0.326-11.679,4.135-23.408,11.571-32.531
							c0.951-1.13,1.877-2.219,2.966-3.279c1.091-1.038,2.298-1.976,3.683-2.69c1.372-0.7,3.001-1.198,4.697-0.944
							c0.838,0.128,1.646,0.442,2.345,0.906c0.699,0.462,1.269,1.041,1.758,1.637c3.491,4.802,6.103,9.934,8.271,15.325
							c4.21,10.795,6.041,22.423,5.712,33.928l-0.471-0.253c1.157-0.771,2.46-1.313,3.816-1.59l0.375-0.077l-0.081,0.368
							l-0.932,4.226L343.427,115.229z"/>
					</g>
					<g>
						<path style="fill:#333232;" d="M340.445,105.389c4.296-0.685,8.613-1.314,12.994-1.562c4.371-0.258,8.835-0.139,13.206,0.829
							c4.35,0.96,8.63,2.675,12.271,5.465c1.825,1.366,3.47,3.045,4.832,4.861c1.384,1.799,2.517,3.693,3.696,5.487
							c1.169,1.797,2.372,3.508,3.768,4.934c1.407,1.41,2.994,2.494,4.817,3.088c3.665,1.222,8.08,0.848,12.429,0.933
							c8.695,0.016,17.389,0.129,26.082,0.308l0.847,0.017l0.449,0.693c0.741,1.143,1.141,2.512,1.228,3.811
							c0.092,1.307-0.083,2.545-0.346,3.703c-0.538,2.318-1.422,4.377-2.119,6.404c-1.454,3.921-1.525,8.384-2.925,12.801
							c-0.688,2.204-1.847,4.312-3.373,6.054c-1.523,1.754-3.384,3.162-5.377,4.248c-3.993,2.208-8.432,3.214-12.827,3.799
							c-4.423,0.616-8.871,0.37-13.199,0.752c-2.165,0.186-4.323,0.469-6.377,1.077c-2.051,0.601-4.007,1.509-5.637,2.837
							c-3.361,2.549-4.797,6.993-4.443,11.111c0.315,4.129,2.438,8.198,5.939,10.184l1.637,0.928l-1.679,0.953
							c-4.598,2.61-10.021,3.76-15.343,3.217l1.303-2.158c1.537,2.13,3.554,3.918,5.858,5.146l3.017,1.607l-3.268,1.131
							c-1.976,0.684-4.096,0.936-6.188,0.732l1.745-1.584c0.06,2.014,0.684,3.975,1.728,5.802c1.034,1.832,2.408,3.551,3.888,5.236
							c1.482,1.687,3.081,3.343,4.634,5.119c1.551,1.755,3.073,3.716,4.265,5.861c2.404,4.265,3.798,9.074,4.06,13.956
							c0.254,4.875-0.552,9.851-2.581,14.365l-2.527,5.622l-1.264-6.039l-1.131-5.402l3.947-0.051
							c-0.9,4.991-1.822,9.978-2.829,14.949c-0.993,4.973-2.014,9.941-3.063,14.902l-1.377,6.512l-2.248-6.231l-1.314-3.643
							l3.521-0.175c-2.681,9.606-10.196,17.509-19.516,20.679L359,299.56l0.726-2.667c0.273-1.001,0.642-1.859,0.913-2.646
							c0.277-0.787,0.45-1.496,0.451-2.158l2.786,0.252c-1.931,8.601-7.626,16.124-15.209,20.292l-1.415,0.778l0.12-1.568
							l0.292-3.822l1.448,0.339c-2.664,5.637-7.926,9.865-13.856,11.167l-0.095-0.365c5.677-1.726,10.427-6.053,12.566-11.408
							l1.53-3.83l-0.082,4.169l-0.075,3.833l-1.295-0.79c6.959-4.217,11.916-11.5,13.314-19.351l2.326-13.061l0.46,13.313
							c0.039,1.144-0.231,2.209-0.523,3.122c-0.295,0.919-0.612,1.73-0.788,2.472l-1.925-1.765
							c8.275-3.039,14.837-10.399,16.924-18.831l1.403-5.666l2.118,5.491l1.394,3.613l-3.625,0.281
							c0.986-4.96,1.944-9.924,2.874-14.894l2.767-14.914l1.868-10.068l2.079,10.016l1.121,5.404l-3.791-0.417
							c1.729-3.894,2.546-8.217,2.378-12.525c-0.165-4.309-1.341-8.582-3.396-12.358c-1.995-3.774-5.272-6.926-8.317-10.504
							c-1.523-1.79-3.032-3.694-4.198-5.91c-1.181-2.189-1.954-4.754-1.953-7.351l0-1.802l1.745,0.218
							c1.63,0.203,3.32,0.049,4.896-0.451l-0.252,2.738c-2.672-1.525-4.983-3.653-6.679-6.202l-1.723-2.59l3.027,0.432
							c4.715,0.673,9.689-0.16,13.975-2.378l-0.043,1.881c-2.045-1.282-3.664-3.144-4.744-5.228
							c-1.085-2.088-1.667-4.393-1.776-6.706c-0.107-2.312,0.261-4.651,1.151-6.794c0.888-2.131,2.31-4.097,4.179-5.465
							c1.816-1.424,3.952-2.346,6.121-2.952c2.173-0.626,4.404-0.902,6.616-1.078c4.439-0.329,8.829-0.156,13.133-0.792
							c4.297-0.577,8.557-1.755,12.243-3.899c3.678-2.148,6.5-5.548,7.533-9.597c1.122-4.03,1.007-8.563,2.415-13.008
							c0.65-2.155,1.413-4.197,1.783-6.191c0.39-1.995,0.267-3.855-0.693-5.228l1.296,0.71c-8.695,0.048-17.39,0.03-26.084-0.086
							c-2.182-0.037-4.321-0.032-6.568-0.113c-2.237-0.101-4.582-0.327-6.878-1.131c-2.323-0.773-4.375-2.284-5.988-3.985
							c-1.609-1.723-2.865-3.629-4.024-5.496c-2.312-3.758-4.347-7.375-7.629-9.925c-3.199-2.614-7.098-4.395-11.174-5.503
							c-4.091-1.076-8.387-1.489-12.695-1.5c-4.314-0.015-8.647,0.348-12.987,0.65L340.445,105.389z"/>
					</g>
					<g>
						<path style="fill:#333232;" d="M345.518,297.802c-2.429,5.443-4.949,10.833-7.114,16.358
							c-1.118,2.745-2.181,5.509-3.136,8.305c-0.98,2.787-1.869,5.599-2.643,8.437c-0.793,2.834-1.417,5.704-1.98,8.577
							c-0.528,2.881-0.912,5.778-1.163,8.7c-0.261,2.913-0.393,5.829-0.278,8.708c0.109,2.875,0.486,5.723,1.29,8.359
							c0.81,2.618,2.181,5.153,3.733,7.573c1.538,2.441,3.297,4.783,5.127,7.089l2.768,3.472c0.954,1.181,1.791,2.282,2.732,2.8
							c0.874,0.524,2.142,0.492,3.612,0.329c1.489-0.177,3.154-0.229,4.703-0.043c6.266,0.7,12.111,4.391,15.045,9.945
							c0.699,1.396,1.212,2.917,1.322,4.509c0.105,1.574-0.103,3.241-0.929,4.67c-0.803,1.409-2.039,2.539-3.512,3.211
							c-1.459,0.67-3.264,0.821-4.805,0.111l0.808-0.601c0.079,0.574,0.032,1.205-0.211,1.764c-0.231,0.563-0.622,1.03-1.052,1.392
							c-0.872,0.728-1.884,1.121-2.89,1.398c-1.012,0.27-2.042,0.408-3.082,0.445l-2.995,0.01c-3.968-0.01-7.937,0.035-11.905,0.076
							c-3.934-0.003-8.008,0.293-12.124-0.8c-2.04-0.546-4.045-1.538-5.691-2.991c-1.64-1.446-2.981-3.448-3.393-5.783l2.514,0.528
							l-1.248,2l-1.686,2.702l-0.87-3.13c-0.805-2.896-1.333-5.872-1.576-8.876l3.007,0.438l-1.402,3.97l-4.028,11.406l0.901-12.116
							c0.295-3.964-1.696-8.116-4.947-10.315l-0.473-0.319l-0.197-0.577l-0.993-2.908l3.43-0.058
							c-0.54,1.838-1.874,3.332-3.652,4.075l-1.741,0.727l-0.667-1.796c-2.248-6.051-2.553-12.446-2.597-18.509
							c-0.016-6.095,0.213-12.024-0.773-17.757c-0.89-5.759-2.704-11.388-5.344-16.599c-0.639-1.314-1.358-2.588-2.098-3.848
							l-1.169-1.874c-0.425-0.661-0.84-1.341-1.228-2.05c-0.767-1.421-1.482-2.941-1.805-4.748
							c-0.156-0.899-0.189-1.898,0.051-2.914c0.226-1.019,0.799-1.996,1.515-2.719l2.036,2.457c-2.748,1.753-5.879,2.858-9.097,3.22
							l-2.729,0.308l1.233-2.413c1.98-3.874,4.057-7.699,6.081-11.55l1.714,1.472c-0.924,0.607-1.822,1.291-2.916,1.909
							c-0.548,0.304-1.162,0.581-1.834,0.742c-0.67,0.164-1.382,0.195-2.042,0.112l-1.914-0.243l1.266-1.392
							c2.626-2.887,5.283-5.747,7.952-8.596c2.663-2.855,5.321-5.714,8.019-8.539l0.284,0.247c-2.425,3.062-4.888,6.091-7.348,9.122
							c-2.452,3.038-4.918,6.065-7.414,9.065l-0.649-1.634c0.932,0.07,1.734-0.203,2.593-0.744c0.853-0.538,1.731-1.267,2.662-1.954
							l3.686-2.721l-1.971,4.193c-1.851,3.938-3.65,7.901-5.546,11.816l-1.496-2.105c2.757-0.397,5.419-1.437,7.701-2.996
							l11.634-7.951l-9.598,10.408c-0.653,0.708-0.815,1.602-0.575,2.797c0.24,1.17,0.836,2.424,1.545,3.627
							c0.356,0.605,0.747,1.204,1.158,1.801l1.29,1.931c0.83,1.319,1.643,2.652,2.363,4.037c2.899,5.525,4.925,11.512,5.97,17.679
							c1.056,6.212,0.803,12.441,0.776,18.408c-0.068,5.969,0.162,11.871,2.057,17.244l-2.408-1.068
							c0.712-0.265,1.358-0.954,1.578-1.693l1.656-5.568l1.774,5.51l0.942,2.925l-0.669-0.896c4.29,3.056,6.686,8.329,6.145,13.518
							l-3.128-0.71l1.522-3.925l2.645-6.819l0.362,7.257c0.14,2.813,0.55,5.617,1.223,8.36l-2.555-0.428l1.295-1.899l2.063-3.025
							l0.451,3.553c0.205,1.61,1.087,3.156,2.354,4.386c1.281,1.236,2.877,2.142,4.642,2.704c3.555,1.152,7.552,1.05,11.517,1.205
							c3.967,0.122,7.934,0.249,11.901,0.32l2.956,0.058c0.943-0.007,1.895-0.127,2.801-0.364c0.901-0.236,1.782-0.592,2.442-1.14
							c0.669-0.544,1.001-1.284,0.881-2.101l-0.156-1.061l0.965,0.46c1.186,0.566,2.621,0.467,3.846-0.117
							c1.23-0.574,2.288-1.563,2.945-2.749c0.659-1.173,0.858-2.597,0.711-3.971c-0.136-1.382-0.632-2.726-1.3-3.966
							c-1.361-2.485-3.53-4.502-5.972-5.931c-2.452-1.43-5.231-2.278-8.025-2.447c-1.419-0.089-2.746,0.011-4.204,0.251
							c-0.742,0.111-1.542,0.228-2.418,0.22c-0.865-0.002-1.854-0.173-2.723-0.612c-1.728-0.886-2.73-2.251-3.706-3.304
							l-2.967-3.375c-3.834-4.608-7.678-9.487-9.697-15.62c-0.936-3.066-1.259-6.185-1.35-9.253c-0.08-3.073,0.087-6.118,0.41-9.128
							c0.682-6.01,1.911-11.985,3.769-17.715c3.623-11.521,9.177-22.191,15.093-32.523L345.518,297.802z"/>
					</g>
					<g>
						<path style="fill:#333232;" d="M298.895,338.463c0.224,1.278,0.196,2.488,0.128,3.687c-0.089,1.193-0.277,2.36-0.537,3.507
							c-0.23,1.155-0.676,2.252-1.265,3.309c-0.584,1.059-1.23,2.101-1.618,3.214l-0.427,1.224l-0.641-1.024
							c-0.556-0.887-1.218-1.697-1.973-2.437c-0.751-0.744-1.582-1.428-2.376-2.14l0.886,0.546c0.081,0.066,0.325,0.063,0.474,0.001
							c0.152-0.058,0.201-0.095,0.22-0.07c0.025,0.047-0.017,0.262-0.018,0.48v0.377l-0.02,0.603
							c-0.004,0.405-0.062,0.802-0.101,1.206c-0.191,1.605-0.721,3.172-1.562,4.544c-0.834,1.377-1.95,2.564-3.224,3.497
							c-1.293,0.907-2.739,1.594-4.289,1.783l-0.183-0.329c0.931-1.204,1.752-2.284,2.44-3.418c0.715-1.103,1.274-2.25,1.774-3.386
							c0.487-1.141,0.973-2.264,1.338-3.451c0.077-0.298,0.188-0.594,0.243-0.899l0.241-1.138c0.129-0.478,0.286-0.961,0.68-1.524
							c0.207-0.275,0.492-0.591,0.95-0.831c0.454-0.247,1.069-0.307,1.501-0.185l0.731,0.208l0.155,0.338
							c0.445,0.969,0.852,1.966,1.34,2.903c0.483,0.941,1.06,1.813,1.743,2.607l-1.068,0.2c0.228-1.156,0.197-2.382,0.228-3.591
							c0.026-1.21,0.196-2.382,0.581-3.495c0.355-1.121,0.783-2.223,1.309-3.297c0.547-1.069,1.135-2.127,1.974-3.117
							L298.895,338.463z"/>
					</g>
				</g>
				<path style="fill:#333232;" d="M419.093,138.739c0.501,2.459,1.592,4.722,3.728,6.149c1.168,0.78,3.075,1.069,3.713-0.183
					c0.434-0.851-0.031-1.858-0.132-2.808c-0.102-0.95,0.699-2.187,1.545-1.743c0.781,0.409,0.433,1.564,0.232,2.423
					c-0.3,1.283,0.08,2.761,1.119,3.573c1.039,0.811,2.728,0.748,3.557-0.276c0.373-0.461,0.548-1.046,0.714-1.615
					c0.622-2.126,1.245-4.253,1.867-6.379c0.963-3.29,1.272-7.37-2.959-7.814c-4.148-0.435-8.834,0.429-12.866,1.338
					c-0.212,0.048-0.438,0.104-0.584,0.265c-0.162,0.177-0.189,0.435-0.207,0.674C418.666,134.346,418.66,136.616,419.093,138.739z"
					/>
				<g>
					<path style="fill:#333232;" d="M327.304,67.624c-0.934-1.009-2.476-1.162-3.691-0.735c-1.24,0.452-2.203,1.461-2.909,2.588
						c-1.447,2.287-2.112,4.987-2.409,7.695c-0.482,5.468-0.459,11.058,0.064,16.547c0.489,5.503,1.438,10.956,2.788,16.31
						c0.696,2.666,1.457,5.341,2.389,7.917c0.938,2.563,2.112,5.034,3.821,7.079l-1.366,0.65c-0.837-4.854-1.243-9.78-1.178-14.699
						l0.072-5.423l1.228,5.271c0.784,3.366,2.119,6.609,3.938,9.558l-1.049,0.41c-0.773-4.35-0.315-8.894,1.302-12.985l0.624-1.577
						l0.274,1.665c0.77,4.685,2.225,9.266,4.309,13.549l-0.592,0.157c-0.18-4.163-0.146-8.332,0.101-12.487l0.066-1.106l0.283,1.067
						l1.994,7.508l-0.182,0.05l-2.156-7.463l0.349-0.039c-0.157,4.147-0.101,8.299,0.167,12.436l0.097,1.498l-0.689-1.342
						c-2.204-4.291-3.784-8.91-4.672-13.667l0.897,0.088c-1.486,3.952-1.852,8.314-1.048,12.439l0.575,2.949l-1.624-2.539
						c-1.934-3.025-3.375-6.367-4.249-9.859l1.299-0.152c0.02,4.836,0.479,9.67,1.402,14.41l0.556,2.859l-1.922-2.208
						c-1.926-2.212-3.228-4.842-4.256-7.482c-1.014-2.653-1.858-5.328-2.593-8.052c-1.479-5.438-2.398-11.027-2.794-16.645
						c-0.184-2.811-0.239-5.628-0.165-8.441c0.092-2.813,0.217-5.614,0.673-8.426c0.459-2.792,1.286-5.633,2.986-7.991
						c0.849-1.159,1.995-2.214,3.439-2.625c1.41-0.396,3.094-0.057,3.994,1.123L327.304,67.624z"/>
				</g>
				<g>
					<path style="fill:#333232;" d="M379.121,130.784c0.311,1.546,0.016,3.169-0.595,4.623c-0.341,0.811-0.785,1.588-1.39,2.227
						c-1.575,1.663-4.179,2.179-6.342,1.426c-2.33-0.812-4.102-3.035-4.374-5.486c-0.272-2.452,0.969-5.009,3.064-6.312
						C372.872,125.154,378.281,126.605,379.121,130.784z"/>
					<path style="fill:#FFFFFF;" d="M369.395,134.927c-0.252,0.11-0.52,0.221-0.69,0.437c-0.263,0.334-0.21,0.836,0.017,1.196
						c0.227,0.359,0.592,0.606,0.953,0.83c0.486,0.302,0.998,0.589,1.561,0.692c0.563,0.103,1.193-0.004,1.603-0.404
						c0.201-0.196,0.337-0.448,0.461-0.699c0.395-0.794,1.56-3.894-0.06-4.167c-0.575-0.096-1.239,0.594-1.661,0.889
						C370.893,134.181,370.162,134.592,369.395,134.927z"/>
					<path style="fill:#FFFFFF;" d="M368.231,132.652c-0.323,0.22-0.577,0.58-0.565,0.97c0.004,0.122,0.035,0.245,0.11,0.341
						c0.138,0.175,0.385,0.215,0.608,0.221c0.683,0.017,1.366-0.183,1.944-0.545c0.382-0.239,1.342-0.954,1.195-1.504
						C371.306,131.318,368.692,132.337,368.231,132.652z"/>
					<g>
						<path style="fill:#333232;" d="M381.259,128.983c-0.332-2.691-1.758-5.182-3.787-6.917c-2.015-1.74-4.587-2.836-7.142-2.967
							c-2.534-0.148-4.832,1.216-6.3,3.146c-1.503,1.925-2.156,4.37-1.933,6.79c0.078,1.208,0.384,2.406,0.871,3.518
							c0.502,1.102,1.123,2.17,2.017,3.01c1.683,1.762,4.035,3.006,6.601,3.17c1.278,0.151,2.577-0.054,3.828-0.408
							c1.24-0.407,2.397-1.076,3.378-1.973c0.238-0.229,0.434-0.499,0.655-0.748l0.323-0.382c0.097-0.135,0.171-0.285,0.257-0.427
							l0.504-0.869c0.125-0.31,0.228-0.63,0.335-0.948c0.269-0.624,0.269-1.313,0.396-1.973
							C381.323,130.336,381.257,129.658,381.259,128.983z M381.259,128.983c0.326,2.674-0.393,5.521-2.227,7.6
							c-1.865,2.035-4.614,3.27-7.469,3.343c-2.858,0.17-5.8-0.918-8-2.887c-2.271-1.943-3.573-4.861-3.832-7.814
							c-0.113-1.486,0.061-2.996,0.502-4.432c0.464-1.445,1.256-2.745,2.238-3.862c1.003-1.102,2.242-1.986,3.626-2.546
							c1.384-0.545,2.936-0.712,4.357-0.46c2.826,0.502,5.318,1.965,7.243,3.902C379.619,123.762,380.967,126.289,381.259,128.983z"
							/>
					</g>
					<path style="fill:#FFFFFF;" d="M375.017,135.196c-0.055,0.283-0.079,0.564-0.105,0.733c-0.036,0.232-0.073,0.469-0.036,0.701
						c0.036,0.232,0.157,0.464,0.365,0.574c0.347,0.184,0.766-0.026,1.094-0.243c0.147-0.097,0.294-0.199,0.402-0.339
						c0.182-0.237,0.226-0.559,0.172-0.853c-0.053-0.294-0.194-0.564-0.351-0.818c-0.172-0.278-0.392-0.56-0.708-0.644
						C375.325,134.168,375.118,134.684,375.017,135.196z"/>
				</g>
				<g>
					<path style="fill:#333232;" d="M361.8,137.002c-0.449-0.533-0.931-1.014-1.463-1.427c-0.53-0.413-1.093-0.77-1.689-1.052
						c-0.298-0.141-0.601-0.27-0.913-0.368c-0.31-0.106-0.629-0.211-0.896-0.224c-0.272-0.017-0.461,0.064-0.532,0.189
						c-0.095,0.144-0.07,0.398,0.034,0.495l2.565,2.374l-3.014-1.775c-1.366-0.804-3.06-1.094-4.734-0.759
						c1.529-0.79,3.51-0.758,5.104,0.101l-0.449,0.599c-0.393-0.396-0.428-0.97-0.183-1.422c0.275-0.504,0.866-0.63,1.264-0.58
						c0.823,0.109,1.427,0.412,2.075,0.761C360.219,134.628,361.238,135.726,361.8,137.002z"/>
				</g>
				<g>
					<path style="fill:#333232;" d="M381.286,158.57c-2.673-0.28-5.381-0.61-7.948-1.54c-2.521-0.98-4.897-2.602-6.312-4.952
						l0.16-0.099c1.264,0.779,2.354,1.367,3.463,1.899c0.57,0.237,1.095,0.524,1.667,0.73c0.554,0.234,1.107,0.475,1.684,0.659
						c0.562,0.239,1.148,0.435,1.741,0.64c0.584,0.247,1.199,0.411,1.805,0.677c1.226,0.469,2.5,0.982,3.761,1.799L381.286,158.57z"
						/>
				</g>
				<g>
					<path style="fill:#333232;" d="M370.647,107.483c2.884,2.048,5.447,4.547,7.686,7.306c2.211,2.784,4.072,5.851,5.541,9.101
						c1.478,3.248,2.495,6.702,3.104,10.223c0.596,3.523,0.767,7.132,0.408,10.699l-0.074,0.735l-0.711-0.187
						c-3.171-0.834-6.387-1.505-9.628-2.01c-3.237-0.536-6.504-0.913-9.784-1.119c-3.258-0.203-6.6-0.272-9.657,0.84
						c-1.514,0.56-2.888,1.466-3.97,2.66c-1.073,1.205-1.849,2.661-2.358,4.204c-0.994,3.113-0.961,6.484-0.357,9.682
						c0.614,3.212,1.921,6.269,3.688,9.001c3.549,5.449,9.065,9.636,15.313,11.225l4.9,1.246l-5.066-0.039
						c-5.135-0.039-10.253-1.332-14.823-3.7l0.895-1.05c2.216,2.942,5.074,5.34,8.166,7.379c3.105,2.037,6.466,3.705,9.864,5.31
						l3.133,1.479l-3.456-0.109c-2.772-0.088-5.471-0.736-8.007-1.705c-2.542-0.965-4.952-2.211-7.251-3.616l0.859-0.773
						c1.025,2.278,2.592,4.309,4.462,6.003c1.864,1.708,4.033,3.095,6.354,4.145c4.673,2.094,9.842,2.962,14.99,3.327l-0.007,0.141
						c-5.16-0.135-10.431-0.705-15.301-2.734c-2.427-1.005-4.722-2.366-6.735-4.092c-2.001-1.734-3.709-3.855-4.861-6.281
						l-0.838-1.766l1.698,0.992c2.273,1.328,4.642,2.492,7.102,3.37c2.458,0.863,5.006,1.492,7.571,1.552l-0.323,1.369
						c-3.425-1.599-6.85-3.277-10.068-5.368c-3.22-2.07-6.18-4.657-8.485-7.775l-1.868-2.527l2.763,1.477
						c4.345,2.322,9.249,3.595,14.185,3.725l-0.166,1.207c-6.568-1.782-12.151-6.321-15.625-12.02
						c-1.755-2.85-2.967-6.019-3.568-9.3c-0.591-3.272-0.576-6.708,0.449-9.908c0.504-1.596,1.288-3.12,2.399-4.4
						c1.121-1.271,2.564-2.247,4.14-2.852c3.166-1.242,6.604-1.285,9.898-1.182c3.314,0.106,6.626,0.381,9.917,0.829
						c3.286,0.479,6.548,1.127,9.77,1.94l-0.785,0.548c0.345-3.451,0.255-6.951-0.293-10.386c-0.534-3.439-1.538-6.797-2.868-10.018
						c-1.34-3.218-3.075-6.28-5.168-9.084c-2.064-2.828-4.514-5.374-7.239-7.604L370.647,107.483z"/>
				</g>
				<g>
					<path style="fill:#333232;" d="M292.34,409.128c-0.226-2.305-0.454-4.513-1.1-6.54c-0.625-2.025-1.76-3.818-3.45-5.167
						c-1.665-1.348-3.778-2.209-6.01-2.327c-2.228-0.128-4.551,0.429-6.53,1.661c1.795-1.487,4.101-2.415,6.517-2.603
						c2.421-0.201,4.946,0.416,7.095,1.72c2.167,1.271,3.94,3.355,4.998,5.659c1.09,2.297,1.654,4.707,2.195,6.976L292.34,409.128z"
						/>
				</g>
				<g>
					<path style="fill:#333232;" d="M359.918,408.624c-0.431-2.077-0.757-4.185-1.341-6.132c-0.58-1.942-1.55-3.782-3.204-4.895
						c-1.65-1.107-3.805-1.465-5.842-1.155c-2.058,0.31-4.013,1.228-5.776,2.391c1.673-1.289,3.569-2.37,5.689-2.854
						c2.105-0.477,4.442-0.302,6.425,0.816c2.005,1.135,3.275,3.201,4.043,5.231c0.787,2.065,1.258,4.132,1.841,6.165
						L359.918,408.624z"/>
				</g>
				<g>
					<path style="fill:#333232;" d="M290.115,160.712c1.827-7.337,6.581-13.925,13.034-17.986l0.893-0.562l-0.419,0.977
						c-3.627,8.445-5.672,17.555-5.954,26.717l-1.028-0.287c5.225-9.508,12.451-17.948,21.152-24.483l2.417-1.816l-1.338,2.716
						c-2.821,5.725-6.604,10.84-9.867,16.15c-1.623,2.66-3.098,5.398-4.144,8.285c-1.055,2.881-1.634,5.914-1.656,8.968
						l-1.342-0.636c1.894-1.584,4.259-2.261,6.498-2.628c2.262-0.365,4.506-0.444,6.68-0.629l4.246-0.361l-3.788,1.957
						c-3.366,1.739-6.677,3.675-9.749,5.87c-1.524,1.105-3.01,2.285-4.231,3.629c-0.596,0.669-1.142,1.401-1.399,2.128
						c-0.129,0.361-0.167,0.702-0.112,0.993c0.038,0.173,0.05,0.193,0.144,0.33c0.086,0.115,0.216,0.244,0.368,0.368
						c0.63,0.503,1.494,0.922,2.346,1.374c0.431,0.229,0.871,0.464,1.316,0.758c0.223,0.148,0.447,0.31,0.671,0.517
						c0.107,0.099,0.235,0.233,0.319,0.343l0.239,0.316c1.244,1.712,1.864,3.645,2.375,5.533c0.492,1.902,0.819,3.804,1.216,5.662
						l0.561,2.852l0.447,2.871c1.048,7.675,1.012,15.493-0.161,23.139c-1.192,7.64-3.485,15.106-6.862,22.053l-0.284,0.584
						l-0.393-0.513l-4.406-5.742l0.656-0.215c-0.192,6.687-0.964,13.355-2.298,19.908c-1.336,6.552-3.233,12.985-5.629,19.227
						l-0.249,0.649l-0.299-0.629l-2.912-6.133l0.589-0.081c-0.541,3.22-1.525,6.365-2.918,9.32l-0.235,0.498l-0.33-0.443
						l-2.264-3.039l0.598-0.114c-3.785,14.216-11.611,27.363-22.443,37.395l-0.394,0.365l-0.373-0.393
						c-2.721-2.871-5.784-5.415-9.101-7.563l0.878-0.245c-2.622,5.539-6.381,10.539-10.983,14.605l-0.506,0.447l-0.465-0.499
						l-2.81-3.018l1.125-0.09l-1.47,2.246l-0.349,0.533l-0.581-0.279l-2.081-1.001l1.012-0.386
						c-1.538,3.807-4.176,7.157-7.528,9.548l-0.612,0.437l-0.477-0.592l-3.632-4.503l1.435-0.25
						c-0.895,2.667-2.445,5.105-4.478,7.056l-0.76,0.729l-0.562-0.895c-1.267-2.018-2.886-3.817-4.759-5.286l1.264-0.192
						c-3.841,5.625-7.999,11.06-12.644,16.083c-4.64,5.019-9.78,9.622-15.468,13.477l-0.879,0.596l-0.514-0.934l-3.713-6.748
						l1.82-0.218c-1.415,5.343-4.378,10.247-8.423,14.009l-1.044,0.971l-0.547-1.315l-2.108-5.061l1.801,0.046
						c-3.607,7.46-8.49,14.47-15.061,19.735c-3.281,2.611-6.992,4.74-11.004,6.07c-4.013,1.353-8.217,1.855-12.356,2.027
						c-8.252,0.299-16.742-0.556-24.48-3.826c-3.854-1.632-7.453-3.889-10.539-6.732c-3.081-2.837-5.646-6.289-7.272-10.18
						l-1.876-4.487l3.048,3.778c0.688,0.852,1.432,1.6,2.321,2.152c0.885,0.561,1.907,0.963,2.956,1.331l-0.721,1.032
						c-3.966-4.961-6.503-11.028-7.251-17.317l-0.554-4.66l1.629,4.395l1.238,3.34l-1.041,0.229
						c-0.603-9.201-1.253-18.518-0.053-27.75c0.593-4.603,1.642-9.159,3.29-13.5c1.645-4.335,3.91-8.456,6.875-12.02l0.146,0.119
						c-2.879,3.603-5.044,7.734-6.59,12.06c-1.549,4.332-2.498,8.861-2.996,13.427c-0.98,9.157-0.323,18.39,0.402,27.586
						l0.293,3.716l-1.334-3.488l-1.273-3.327l1.074-0.265c0.786,6.071,3.302,11.905,7.164,16.631l1.444,1.768l-2.165-0.736
						c-1.091-0.371-2.204-0.786-3.247-1.428c-1.05-0.636-1.935-1.514-2.678-2.417l1.172-0.709c1.579,3.668,4.048,6.925,7.018,9.603
						c2.975,2.683,6.444,4.81,10.151,6.334c7.458,3.068,15.698,3.81,23.769,3.456c4.036-0.174,8.06-0.672,11.829-1.952
						c3.775-1.258,7.282-3.275,10.407-5.769c6.258-5.028,10.992-11.816,14.484-19.079l0.952-1.981l0.848,2.027l2.117,5.057
						l-1.591-0.344c3.765-3.512,6.515-8.104,7.868-13.07l0.647-2.374l1.174,2.156l3.682,6.765l-1.393-0.338
						c5.562-3.733,10.616-8.212,15.201-13.126c4.589-4.917,8.721-10.263,12.551-15.818l0.533-0.772l0.732,0.58
						c2.026,1.605,3.768,3.559,5.131,5.752l-1.321-0.166c1.839-1.75,3.255-3.951,4.092-6.352l0.5-1.434l0.936,1.184l3.586,4.539
						l-1.089-0.155c3.122-2.178,5.615-5.274,7.079-8.8l0.305-0.735l0.707,0.349l2.071,1.022l-0.929,0.254l1.493-2.231l0.511-0.764
						l0.615,0.674l2.78,3.046l-0.971-0.052c4.499-3.894,8.202-8.717,10.808-14.08l0.304-0.625l0.574,0.38
						c3.375,2.234,6.481,4.868,9.233,7.829l-0.767-0.029c10.755-9.784,18.72-22.681,22.527-36.766l0.183-0.676l0.415,0.562
						l2.252,3.048l-0.564,0.055c1.378-2.894,2.357-5.98,2.901-9.141l0.168-0.977l0.421,0.896l2.888,6.145l-0.548,0.019
						c2.431-6.192,4.279-12.611,5.569-19.134c1.292-6.524,2.025-13.157,2.181-19.803l0.024-1.024l0.633,0.809l4.459,5.701
						l-0.677,0.071c3.248-6.915,5.413-14.318,6.489-21.866c1.056-7.554,0.994-15.25-0.133-22.776l-0.475-2.814l-0.586-2.792
						c-0.43-1.892-0.779-3.773-1.273-5.584c-0.489-1.8-1.102-3.589-2.139-4.99l-0.196-0.258c-0.062-0.08-0.103-0.118-0.171-0.183
						c-0.129-0.119-0.294-0.24-0.472-0.357c-0.357-0.234-0.765-0.453-1.182-0.672c-0.839-0.449-1.73-0.849-2.613-1.537
						c-0.22-0.179-0.441-0.382-0.644-0.65c-0.202-0.242-0.387-0.673-0.435-0.973c-0.13-0.655-0.025-1.297,0.164-1.838
						c0.393-1.09,1.045-1.913,1.71-2.678c1.36-1.505,2.901-2.727,4.476-3.881c3.169-2.282,6.499-4.246,9.945-6.045l0.458,1.596
						c-2.242,0.198-4.442,0.253-6.564,0.591c-2.107,0.331-4.169,0.948-5.713,2.234l-1.363,1.135l0.021-1.771
						c0.038-3.241,0.676-6.473,1.8-9.493c1.114-3.029,2.658-5.849,4.322-8.546c3.35-5.384,7.109-10.417,9.887-15.99l1.079,0.9
						c-8.549,6.384-15.808,14.534-21.059,23.86l-1.125,1.997l0.096-2.284c0.392-9.297,2.581-18.508,6.448-26.944l0.474,0.414
						c-6.386,3.834-11.231,10.223-13.197,17.472L290.115,160.712z"/>
				</g>
				<g>
					<path style="fill:#333232;" d="M321.43,406.885c2.081,1.453,4.494,2.427,7.01,2.967c2.514,0.567,5.116,0.747,7.713,0.795
						c2.599,0.031,5.212-0.04,7.812-0.176c2.599-0.15,5.199-0.449,7.728-1.105c-2.507,0.732-5.109,1.112-7.711,1.34
						c-2.606,0.215-5.211,0.365-7.83,0.412c-2.616,0.03-5.256-0.07-7.855-0.574c-2.598-0.477-5.15-1.409-7.4-2.882L321.43,406.885z"
						/>
				</g>
				<g>
					<path style="fill:#333232;" d="M180.529,406.172c0.702,0.159,1.227,0.203,1.785,0.25c0.547,0.051,1.103,0.104,1.686,0.217
						c0.574,0.109,1.138,0.265,1.705,0.474c0.567,0.22,1.136,0.469,1.719,0.896c-0.627,0.361-1.265,0.502-1.9,0.574
						c-0.635,0.061-1.267,0.026-1.883-0.095c-0.605-0.12-1.238-0.318-1.832-0.679C181.231,407.45,180.665,406.893,180.529,406.172z"
						/>
				</g>
				<g>
					<path style="fill:#333232;" d="M293.183,406.687c-10.652,2.344-21.483,3.811-32.349,4.385
						c10.845-0.887,21.604-2.664,32.133-5.302L293.183,406.687z"/>
				</g>
				<g>
					<path style="fill:#333232;" d="M303.738,403.665c-2.796,1.299-5.788,2.226-8.872,2.738l-0.108-0.936
						C297.794,405.277,300.824,404.672,303.738,403.665z"/>
				</g>
				<g>
					<path style="fill:#333232;" d="M360.069,405.642c2.92,0.178,5.969-0.805,8.306-2.763c-2.123,2.188-5.143,3.568-8.313,3.705
						L360.069,405.642z"/>
				</g>
				<g>
					<path style="fill:#333232;" d="M303.937,318.073c-0.456,1.468-1.023,2.805-1.539,4.158l-0.807,2
						c-0.26,0.668-0.521,1.335-0.789,1.999l-1.464-1.004c0.847-0.707,1.741-1.36,2.664-1.981c0.933-0.609,1.886-1.193,2.943-1.658
						c-0.612,0.979-1.327,1.839-2.063,2.674c-0.746,0.824-1.521,1.615-2.343,2.352l-2.491,2.234l1.028-3.238
						c0.229-0.721,0.509-1.424,0.834-2.107c0.301-0.693,0.693-1.344,1.073-1.995C301.801,320.241,302.736,319.039,303.937,318.073z"
						/>
				</g>
			</g>
			<g>
				<g>
					<path style="fill:#333232;" d="M378.479,226.995c1.038,0.618,1.794,1.575,2.35,2.614c0.532,1.052,0.878,2.222,0.784,3.426
						c-0.632-1.022-1.097-2.011-1.62-2.993C379.493,229.049,378.952,228.099,378.479,226.995z"/>
				</g>
				<g>
					<path style="fill:#333232;" d="M377.458,232.609c0.74,0.601,1.165,1.439,1.421,2.305c0.23,0.874,0.298,1.811-0.028,2.708
						c-0.422-0.849-0.641-1.646-0.879-2.456C377.76,234.349,377.536,233.552,377.458,232.609z"/>
				</g>
				<g>
					<path style="fill:#333232;" d="M382.219,238.869c0.444,0.726,0.602,1.481,0.692,2.242c0.061,0.764,0.052,1.535-0.245,2.334
						c-0.446-0.726-0.604-1.481-0.692-2.242C381.915,240.438,381.924,239.667,382.219,238.869z"/>
				</g>
				<g>
					<path style="fill:#333232;" d="M381.986,247.195c0.385,0.889,0.389,1.84,0.235,2.746c-0.181,0.901-0.529,1.787-1.211,2.476
						c-0.014-0.964,0.139-1.797,0.285-2.649C381.469,248.921,381.627,248.088,381.986,247.195z"/>
				</g>
				<g>
					<path style="fill:#333232;" d="M379.316,256.56c0.385,0.643,0.397,1.363,0.259,2.029c-0.164,0.66-0.489,1.303-1.118,1.712
						c-0.042-0.742,0.075-1.324,0.2-1.923C378.808,257.785,378.956,257.21,379.316,256.56z"/>
				</g>
			</g>
			<g>
				<path style="fill:#333232;" d="M166.43,401.876c3.461-3.827,5.979-8.685,7.106-13.976c-0.192,5.406-1.838,10.878-4.845,15.672
					L166.43,401.876z"/>
			</g>
			<g>
				<path style="fill:#333232;" d="M301.071,91.396c1.878-2.693,4.033-5.18,6.414-7.409l1.303-1.22l-0.222,1.73
					c-0.184,1.428-0.117,2.897,0.202,4.318l-0.96,0.051c0.428-2.384,1.625-4.588,3.346-6.223l0.364-0.346l0.091,0.477
					c0.26,1.364,0.646,2.732,1.492,3.835c0.827,1.074,2.2,1.872,3.626,1.657c-1.412,0.308-2.891-0.407-3.834-1.486
					c-0.962-1.101-1.457-2.514-1.811-3.889l0.455,0.131c-1.534,1.655-2.509,3.793-2.759,5.987l-0.274,2.401l-0.686-2.35
					c-0.44-1.508-0.618-3.099-0.516-4.684l1.081,0.509c-2.174,2.312-4.098,4.844-5.732,7.539L301.071,91.396z"/>
			</g>
			<g>
				<path style="fill:#333232;" d="M306.446,131.111c1.501,0.608,2.957,0.898,4.488,1.042c1.523,0.166,3.086,0.165,4.69,0.429
					c-1.546,0.48-3.156,0.656-4.785,0.508c-0.81-0.091-1.625-0.26-2.387-0.585C307.692,132.189,306.979,131.73,306.446,131.111z"/>
			</g>
			<g>
				<path style="fill:#333232;" d="M305.305,135.296c0.617-0.209,1.121-0.195,1.634-0.15c0.51,0.073,1.003,0.174,1.556,0.522
					c-0.521,0.4-1.107,0.465-1.665,0.414C306.275,136.001,305.721,135.803,305.305,135.296z"/>
			</g>
			<g>
				<path style="fill:#333232;" d="M313.032,137.069c-0.948,0.764-2.092,1.171-3.254,1.393c-1.167,0.194-2.381,0.206-3.534-0.187
					c1.159-0.355,2.259-0.53,3.369-0.74C310.729,137.352,311.822,137.137,313.032,137.069z"/>
			</g>
			<g>
				<g>
					<path style="fill:#333232;" d="M307.653,327.528c-0.192,0.874-0.614,1.574-1.091,2.234c-0.5,0.642-1.056,1.242-1.843,1.668
						c0.191-0.875,0.613-1.575,1.091-2.234C306.311,328.555,306.867,327.955,307.653,327.528z"/>
				</g>
				<g>
					<path style="fill:#333232;" d="M306.81,333.369c-0.296,1.184-0.639,2.233-0.9,3.328c-0.285,1.088-0.477,2.175-0.777,3.359
						c-0.45-1.146-0.419-2.412-0.136-3.588C305.305,335.298,305.875,334.168,306.81,333.369z"/>
				</g>
				<g>
					<path style="fill:#333232;" d="M302.084,329.456c0.014,0.641-0.164,1.108-0.38,1.566c-0.242,0.445-0.515,0.863-1.044,1.228
						c-0.173-0.621-0.029-1.167,0.205-1.655C301.125,330.12,301.481,329.682,302.084,329.456z"/>
				</g>
				<g>
					<path style="fill:#333232;" d="M311.258,311.923c-0.133,0.856-0.503,1.55-0.93,2.206c-0.451,0.639-0.96,1.239-1.709,1.676
						c0.131-0.857,0.502-1.551,0.93-2.206C310.002,312.961,310.51,312.361,311.258,311.923z"/>
				</g>
				<g>
					<path style="fill:#333232;" d="M297.923,308.19c-0.287,0.937-0.797,1.691-1.359,2.402c-0.585,0.693-1.224,1.341-2.087,1.806
						c0.285-0.938,0.795-1.692,1.358-2.402C296.422,309.305,297.061,308.656,297.923,308.19z"/>
				</g>
				<g>
					<path style="fill:#333232;" d="M278.801,358.47c0.682,0.691,0.95,1.672,0.943,2.615c-0.028,0.943-0.335,1.913-1.046,2.575
						c0.02-0.959,0.098-1.76,0.105-2.594C278.83,360.233,278.784,359.428,278.801,358.47z"/>
				</g>
				<g>
					<path style="fill:#333232;" d="M274.136,362.843c0.445,1.062,0.465,2.223,0.28,3.327c-0.211,1.099-0.637,2.18-1.428,3.018
						c0.105-1.14,0.326-2.148,0.502-3.185C273.691,364.97,273.838,363.947,274.136,362.843z"/>
				</g>
				<g>
					<path style="fill:#333232;" d="M276.254,369.028c0.267,0.861,0.181,1.72-0.026,2.533c-0.235,0.805-0.601,1.587-1.272,2.19
						c-0.016-0.898,0.165-1.665,0.364-2.44C275.547,370.544,275.783,369.792,276.254,369.028z"/>
				</g>
				<g>
					<path style="fill:#333232;" d="M270.207,373.584c0.416,0.903,0.391,1.916,0.152,2.845c-0.263,0.923-0.754,1.809-1.572,2.376
						c0.184-0.969,0.445-1.777,0.664-2.624C269.692,375.343,269.877,374.512,270.207,373.584z"/>
				</g>
				<g>
					<path style="fill:#333232;" d="M265.033,372.932c0.431,1.572,0.232,3.276-0.332,4.806c-0.585,1.523-1.562,2.934-2.925,3.828
						c0.807-1.401,1.515-2.731,2.044-4.161C264.369,375.984,264.716,374.516,265.033,372.932z"/>
				</g>
				<g>
					<path style="fill:#333232;" d="M257.513,380.576c0.2,0.795-0.006,1.579-0.362,2.255c-0.378,0.664-0.93,1.259-1.71,1.514
						c0.241-0.777,0.564-1.359,0.885-1.968C256.67,381.782,256.989,381.196,257.513,380.576z"/>
				</g>
				<g>
					<path style="fill:#333232;" d="M247.429,385.78c0.116,0.574-0.051,1.025-0.287,1.423c-0.261,0.382-0.601,0.722-1.172,0.856
						c-0.024-0.585,0.154-0.986,0.38-1.364C246.6,386.332,246.89,386.003,247.429,385.78z"/>
				</g>
				<g>
					<path style="fill:#333232;" d="M70.545,340.422c0.225,1.979,0.351,3.897,0.588,5.816c0.209,1.923,0.522,3.818,0.752,5.797
						c-0.945-1.761-1.447-3.718-1.687-5.689C69.984,344.371,70.027,342.352,70.545,340.422z"/>
				</g>
				<g>
					<path style="fill:#333232;" d="M74.52,341.634c0.295,0.874,0.384,1.676,0.479,2.492c0.067,0.819,0.133,1.622,0.01,2.537
						c-0.597-0.711-0.85-1.578-0.947-2.446C73.993,343.347,74.074,342.447,74.52,341.634z"/>
				</g>
				<g>
					<path style="fill:#333232;" d="M79.238,328.103c0.137,1.462,0.079,2.857,0.035,4.262c-0.073,1.404-0.133,2.798-0.396,4.243
						c-0.483-1.391-0.593-2.845-0.545-4.283C78.408,330.888,78.641,329.448,79.238,328.103z"/>
				</g>
				<g>
					<path style="fill:#333232;" d="M78.809,343.194c0.398,0.44,0.508,0.898,0.551,1.359c0.013,0.463-0.043,0.93-0.389,1.413
						c-0.4-0.44-0.51-0.897-0.551-1.359C78.408,344.145,78.465,343.678,78.809,343.194z"/>
				</g>
				<g>
					<path style="fill:#333232;" d="M74.676,351.854c0.433,0.536,0.58,1.103,0.659,1.678c0.05,0.578,0.031,1.164-0.276,1.782
						c-0.435-0.535-0.582-1.103-0.659-1.678C74.352,353.057,74.371,352.471,74.676,351.854z"/>
				</g>
				<g>
					<path style="fill:#333232;" d="M73.444,361.734c0.645,0.812,1.015,1.71,1.32,2.629c0.277,0.927,0.488,1.876,0.422,2.911
						c-0.647-0.811-1.017-1.709-1.32-2.629C73.591,363.717,73.38,362.769,73.444,361.734z"/>
				</g>
				<g>
					<path style="fill:#333232;" d="M78.695,373.141c0.706,0.454,1.165,1.056,1.565,1.693c0.376,0.652,0.691,1.341,0.758,2.178
						c-0.708-0.453-1.166-1.055-1.565-1.693C79.079,374.666,78.764,373.978,78.695,373.141z"/>
				</g>
				<g>
					<path style="fill:#333232;" d="M76.067,379.222c0.704,0.237,1.201,0.567,1.709,0.912c0.493,0.367,0.967,0.728,1.42,1.318
						c-0.743,0.1-1.407-0.168-1.966-0.551C76.687,380.495,76.217,379.956,76.067,379.222z"/>
				</g>
				<g>
					<path style="fill:#333232;" d="M83.176,384.237c0.699,0.049,1.222,0.284,1.735,0.554c0.499,0.296,0.971,0.62,1.375,1.194
						c-0.695,0.115-1.296-0.085-1.836-0.373C83.923,385.299,83.44,384.889,83.176,384.237z"/>
				</g>
			</g>
			<g>
				<path style="fill:#333232;" d="M256.803,362.958c0.208,1.267,0.216,2.568,0.088,3.856c-0.121,1.292-0.448,2.561-0.883,3.788
					c-0.449,1.222-1.012,2.416-1.755,3.498c-0.733,1.087-1.594,2.091-2.57,2.975l-0.811,0.736l0.078-1.102
					c0.124-1.751-0.397-3.537-1.405-4.967l0.775-0.088c-1.117,2.514-2.742,4.81-4.804,6.613c-2.034,1.826-4.456,3.213-7.047,3.966
					c2.476-1.065,4.713-2.585,6.597-4.445c1.857-1.881,3.42-4.058,4.429-6.489l0.299-0.72l0.477,0.632
					c1.193,1.58,1.745,3.607,1.559,5.571l-0.733-0.366c0.936-0.818,1.771-1.754,2.488-2.776c0.707-1.027,1.349-2.109,1.835-3.269
					c0.499-1.155,0.839-2.373,1.09-3.613C256.754,365.515,256.838,364.239,256.803,362.958z"/>
			</g>
			<g>
				<path style="fill:#333232;" d="M376.303,265.259c0.537,2.232,0.603,4.602,0.189,6.893c-0.393,2.296-1.24,4.53-2.524,6.499
					l-0.765,1.173l-0.02-1.406c-0.019-1.353-0.2-2.702-0.533-4.01c-0.327-1.309-0.774-2.593-1.384-3.8l0.826-0.215
					c0.069,2.488-0.203,4.985-0.85,7.38c-0.32,1.196-0.693,2.379-1.189,3.511c-0.489,1.133-1.038,2.239-1.691,3.279
					c0.504-1.119,0.966-2.251,1.339-3.412c0.365-1.162,0.702-2.329,0.938-3.519c0.464-2.378,0.681-4.799,0.581-7.209l-0.082-1.957
					l0.908,1.742c0.656,1.26,1.18,2.594,1.511,3.979c0.325,1.385,0.488,2.807,0.482,4.228l-0.785-0.233
					c1.23-1.865,2.134-3.956,2.66-6.149C376.416,269.836,376.571,267.541,376.303,265.259z"/>
			</g>
			<g>
				<path style="fill:#333232;" d="M344.886,177.575c0.729,2.85,1.88,5.561,3.468,7.98c1.566,2.431,3.54,4.585,5.824,6.337
					l1.359,1.043l-1.693-0.216c-1.336-0.171-2.419-0.907-3.369-1.613c-0.961-0.708-1.888-1.461-2.78-2.252
					c-1.798-1.564-3.467-3.273-4.957-5.121c1.739,1.615,3.522,3.162,5.382,4.605c0.934,0.716,1.889,1.403,2.849,2.078
					c0.956,0.657,1.939,1.267,2.984,1.386l-0.333,0.827c-2.406-1.792-4.422-4.091-5.929-6.668
					C346.206,183.374,345.193,180.511,344.886,177.575z"/>
			</g>
			<g>
				<path style="fill:#333232;" d="M352.187,309.653c-1.264,4.727-2.806,9.338-4.406,13.926c-1.618,4.581-3.298,9.135-5.216,13.601
					c-1.886,4.467-4.021,8.838-4.809,13.596c-0.391,2.365-0.492,4.783-0.293,7.173c0.189,2.393,0.737,4.741,1.443,7.011
					c0.73,2.267,1.712,4.434,2.841,6.496c1.173,1.997,2.405,4.208,3.972,5.354c1.576,1.154,3.807,1.322,6.147,1.249
					c2.346-0.098,4.959-0.148,7.473,0.188c2.524,0.357,5.078,1.024,7.398,2.259c2.329,1.242,4.381,3.009,5.819,5.232
					c1.43,2.207,2.268,4.881,1.889,7.543c-0.184,1.317-0.766,2.642-1.781,3.544c-0.979,0.893-2.363,1.394-3.626,1.087l0.039-0.28
					c1.176,0.032,2.242-0.593,2.93-1.44c0.694-0.851,0.969-1.954,0.998-3.042c0.02-2.215-0.907-4.391-2.266-6.126
					c-1.371-1.751-3.214-3.132-5.221-4.065c-2.043-0.92-4.26-1.489-6.554-1.722c-1.144-0.129-2.303-0.219-3.473-0.236l-3.612,0.002
					c-1.253-0.018-2.561-0.083-3.9-0.355c-1.333-0.28-2.716-0.814-3.869-1.722c-1.148-0.909-1.96-2.03-2.623-3.117
					c-0.648-1.091-1.244-2.192-1.768-3.336c-1.046-2.284-1.783-4.689-2.309-7.115c-1.05-4.862-1.181-9.838-0.562-14.718
					c0.625-4.885,1.95-9.689,3.512-14.285c1.613-4.59,3.464-9.091,5.376-13.566c1.932-4.468,3.92-8.912,6.187-13.241
					L352.187,309.653z"/>
			</g>
			<g>
				<path style="fill:#333232;" d="M290.196,350.38c1.6,2.404,2.306,5.363,2.374,8.26c0.028,1.454-0.075,2.913-0.367,4.331
					c-0.3,1.417-0.812,2.779-1.402,4.086l-1.811,3.844c-0.584,1.275-1.121,2.566-1.665,3.86c-1.047,2.604-2.042,5.264-3.345,7.722
					l-1.259-1.925c1.933-0.284,3.931-0.213,5.849,0.259c0.958,0.235,1.89,0.587,2.774,1.03c0.881,0.448,1.556,0.884,2.152,1.078
					c0.574,0.22,1.435,0.253,2.346,0.351c0.893,0.1,1.786,0.184,2.679,0.311c1.786,0.234,3.57,0.513,5.352,0.929l-0.006,0.283
					c-1.797,0.343-3.592,0.55-5.385,0.711c-0.897,0.091-1.793,0.139-2.69,0.202c-0.871,0.042-1.823,0.147-2.993-0.078
					c-1.147-0.256-2.026-0.756-2.755-1.078c-0.733-0.322-1.483-0.608-2.256-0.828c-1.538-0.466-3.169-0.675-4.797-0.597
					l-2.502,0.119l1.242-2.044c1.444-2.375,3.195-4.552,4.626-6.926c0.695-1.195,1.329-2.427,1.811-3.719
					c0.474-1.295,0.818-2.637,1.028-3.994c0.223-1.352,0.367-2.697,0.54-4.019c0.179-1.321,0.364-2.635,0.455-3.96
					c0.198-2.654,0.122-5.305-0.259-8.106L290.196,350.38z"/>
			</g>
			<path style="fill:none;stroke:#333232;stroke-width:2.8263;stroke-miterlimit:10;" d="M314.826,399.504
				c-2.651,2.192-6.089,3.41-9.529,3.377"/>
		</g>
		<g>
			<path style="fill:#333232;" d="M357.437,100.395c0.635-1.473,1.389-2.895,2.362-4.27c0.498-0.675,1.053-1.336,1.692-1.956
				c0.652-0.6,1.385-1.156,2.201-1.625c0.86-0.482,1.771-0.923,2.756-1.202c0.985-0.272,2.052-0.257,3.05,0.082
				c0.995,0.333,1.938,0.929,2.631,1.761c0.682,0.833,1.12,1.899,0.944,2.983l-0.423,0.267c-1.971-0.443-2.987-0.164-4.071-0.096
				c-0.528,0.054-1.029,0.024-1.586-0.077c-0.557-0.109-1.166-0.164-1.735-0.037c-0.613,0.138-1.233,0.361-1.847,0.659
				c-0.629,0.277-1.256,0.63-1.871,1.035c-1.254,0.791-2.453,1.795-3.708,2.782L357.437,100.395z"/>
		</g>
	</g>
</g>
</svg>
